<?xml version="1.0" encoding="UTF-8"?>
<svg xmlns="http://www.w3.org/2000/svg" xmlns:xlink="http://www.w3.org/1999/xlink" width="700" height="800" viewBox="0 0 700 800">
  <style>.heavy,.superheavy{font:700 30px sans-serif;fill:#fff}</style>
  <path style="fill:#000" d="M0 0h800v1000H0z"></path>
  <g transform="matrix(.1 0 0 -.1 -350 650)" filter="invert(1)">
    <defs>
      <g id="flowerA">
        <circle cx="-20" cy="210" r="100"></circle>
        <use xlink:href="#petal3"></use>
        <use xlink:href="#petal3" transform="rotate(45 30.71 267.28)"></use>
        <use xlink:href="#petal3" transform="rotate(90 -20 240)"></use>
      </g>
      <g id="flowerB">
        <use xlink:href="#petal4"></use>
        <use xlink:href="#petal4" transform="rotate(45 -19.645 218.137)"></use>
        <use xlink:href="#petal4" transform="rotate(90 -30 230)"></use>
        <use xlink:href="#petal4" transform="rotate(-48 -37.302 218.453)"></use>
      </g>
      <g id="decorative1">
        <use xlink:href="#b" style="fill:#f57914"></use>
        <use xlink:href="#tear" x="-2000" transform="matrix(.44463 1.2216 -1.03366 .37622 7471.629 -2470.592)" style="fill:#312b5d"></use>
      </g>
      <g id="decorative2" transform="translate(5150 4100)">
        <use xlink:href="#flowerA" style="fill:#ed1c24"></use>
        <use xlink:href="#flowerB" style="fill:#8c1b85"></use>
      </g>
      <g id="decorative3">
        <use xlink:href="#tear3" x="960" y="-4400" transform="scale(.9 -.7)" style="fill:#0994d3"></use>
        <use xlink:href="#tear3" transform="scale(.7 -.7) rotate(40 14283.441 5801.009)" style="fill:#ed1c24"></use>
      </g>
      <g id="flowerC">
        <use xlink:href="#flowerA" style="fill:#0994d3"></use>
        <use xlink:href="#flowerB" style="fill:#8c1b85"></use>
      </g>
      <g id="decorative4" transform="rotate(125 3495.943 1946.972) scale(.6)">
        <use xlink:href="#flowerA" style="fill:#f57914"></use>
        <use xlink:href="#flowerB" style="fill:#8c1b85"></use>
      </g>
      <g id="decorative5">
        <use xlink:href="#tear" x="-2100" y="1650" transform="matrix(-1.40954 .51303 .0684 -1.40833 12070.592 6071.629)" style="fill:#fff"></use>
        <circle cx="6470" cy="1780" r="130" style="fill:#0994d3"></circle>
        <circle cx="5770" cy="1350" r="70" style="fill:#ed1c24"></circle>
        <circle cx="5820" cy="1150" r="70" style="fill:#ed1c24"></circle>
        <circle cx="5720" cy="1550" r="70" style="fill:#ed1c24"></circle>
        <circle cx="6190" cy="1700" r="80" style="fill:#ed1c24"></circle>
      </g>
      <g id="decorative6">
        <circle cx="6000" cy="1650" r="80" style="fill:#0994d3"></circle>
        <circle cx="6370" cy="200" r="80" style="fill:#f57914"></circle>
        <path d="M6300 1710c-7-13-6-26-4-41s9-26 17-37c6-11 22-17 41-24 17-4 44 9 79 41 35 33 63 131 85 299-92-124-153-194-183-207-4-2-9-4-13-6-10-4-17-13-22-24m-470-161c-26 2-50-6-72-26-19-17-33-39-39-65-4-13 20-164 72-452 50-286 181-530 393-731-201 421-292 709-277 860 15 150 20 247 13 284-6 37-17 68-28 90-15 24-37 39-61 41" style="fill:#ed1c24"></path>
      </g>
      <g id="decorative7">
        <use xlink:href="#tear3" x="960" y="-840" transform="scale(.9 1.6)" style="fill:#0994d3"></use>
        <use xlink:href="#tear2" transform="rotate(-50 6340 4600)" style="fill:#fff"></use>
        <use xlink:href="#tear3" x="400" y="-530" transform="scale(.9 1.3) rotate(30 6740 4300)" style="fill:#ed1c24"></use>
      </g>
      <g id="decorative8" transform="translate(7100 5100)">
        <use xlink:href="#petal3" transform="rotate(-100 -158.564 64.887) scale(.6)" style="fill:#ed1c24"></use>
        <use xlink:href="#flowerC" transform="rotate(125) scale(.6)"></use>
        <use xlink:href="#flowerC" transform="scale(-.6 .6) rotate(-55 -272.14 -141.667)"></use>
      </g>
      <g id="b">
        <circle cx="5630" cy="4060" r="140"></circle>
        <circle cx="5400" cy="3850" r="110"></circle>
        <circle cx="5270" cy="3600" r="90"></circle>
        <circle cx="5180" cy="3350" r="70"></circle>
        <circle cx="5150" cy="3150" r="60"></circle>
      </g>
      <g id="quarter_eye">
        <circle cx="6840" cy="3060" r="165" style="fill:#ed1344"></circle>
        <circle cx="6770" cy="3335" r="165" style="fill:#ed1344"></circle>
        <circle cx="6640" cy="3535" r="165" style="fill:#ed1344"></circle>
        <circle cx="6395" cy="3690" r="165" style="fill:#ed1344"></circle>
        <circle cx="6840" cy="3060" r="80" style="fill:#0994d3"></circle>
        <circle cx="6770" cy="3335" r="80" style="fill:#0994d3"></circle>
        <circle cx="6640" cy="3535" r="80" style="fill:#0994d3"></circle>
        <circle cx="6395" cy="3690" r="80" style="fill:#0994d3"></circle>
      </g>
      <g id="eye1">
        <use xlink:href="#quarter_eye"></use>
        <use xlink:href="#quarter_eye" transform="rotate(180 6150 3060)"></use>
        <use xlink:href="#quarter_eye" transform="rotate(270 6150 3060)"></use>
        <use xlink:href="#quarter_eye" transform="rotate(90 6150 3060)"></use>
      </g>
      <path d="M7507 5582c-168 33-340 50-517 52-177-2-349-20-517-52-345-68-659-244-941-530-284-286-469-556-556-814-20-57-35-116-50-175-33-138-48-284-46-436 0-452 74-803 220-1056 98-168 133-334 102-495-30-159 20-308 148-441 68-68 122-127 166-177 41-46 74-85 96-116 44-255 120-526 229-807 109-282 301-443 576-489 39-6 76-11 111-18 308-37 613-37 921 0 35 7 72 11 113 17 273 46 465 207 574 489 109 281 185 552 229 807 46 63 133 159 262 292s179 282 148 441c-30 161 4 327 103 495 146 253 220 605 223 1056-2 218-35 421-98 611-89 258-275 528-556 814-283 286-598 463-941 530" style="fill:#fcca07" id="face"></path>
      <path d="M7243 1429c-2 24-10 43-26 61-15 17-34 26-54 26h-67c-21 0-41-9-57-26-15-17-24-37-22-61v-260c-2-24 6-44 22-61 15-17 35-26 57-26h68c20 0 39 9 54 26s24 37 26 61v260m-9-487c-2 22-9 41-24 57-15 17-33 26-52 26h-65c-20 0-37-9-52-26-15-15-22-35-22-57V695c0-22 6-41 22-57 15-15 33-24 52-24h65c20 0 37 8 52 24 15 15 22 35 24 57v246m82 86c-15-20-22-39-22-63l.01-260c0-24 6-41 22-57 15-13 30-17 50-13l59 13c20 4 35 15 50 35 6 11 13 24 15.34 37 2 9 4 17 4 24v242c0 24-6 41-20 57-15 15-30 22-50 19m263.65 60h-59c-20 0-37-9-54-24-15-15-22-33-22-52V816c0-17 6-35 22-48 15-11 31-15 46-13h9l58 15c17 4 32 13 46 28 13 17 20 35 20 52v204c0 20-6 35-20 48-13 13-28 20-46 20m294 373c-11 11-24 17-39 17h-50c-17 0-33-6-48-20-13-13-20-28-20-48v-201c0-15 6-28 20-39 11-9 24-13 39-13h9l50 13c15 2 28 11 39 26s17 31 17 46v177c0 15-6 31-17 41m-480-65c0 22-7 41-20 57-15 18-30 26-48 26h-58c-20 0-37-9-52-26s-22-37-22-61v-260c0-24 6-43 22-59 15-15 33-20 52-17l59 6c17 2 33 13 48 33 13 17 20 37 20 59v242m381-262c-17-2-33-9-48-24-13-15-20-30-17-50V892c-2-15 4-28 17-37s26-13 41-11c2 2 4 2 6 2l52 17c15 7 28 15 39 31 11 15 17 33 17 48v178c0 15-6 28-17 39s-24 15-39 13l-52-4.4M7584 1488c-15-15-22-33-22-52v-229c0-20 6-35 22-48 13-11 28-15 44-13h11l57 15c17 4 33 13 48 28 13 17 20 35 20 52v203c0 19-6 35-20 48-15 13-30 20-48 20h-57c-20 0-39-9-55-24" id="teeth"></path>
      <path d="M0 0c4-54-1-112-17-177-9.7-40-18-73-31-103 7-32 21-61 36-83 28-48 53-71 78-73 22 4 39 31 54 81 8 34 12 75 11 115-19 22-36 47-51 74C43-107 14-51 0 0" id="petal3"></path>
      <path d="M250-340c41-36 75-48 96-40 21 12 25 46 14 95-5 30-15 59-28 88-8 17-14 37-25 56-8 17-20 34-30 54-44 68-91 124-140 163-20 16-40 28-55 36-15 4-27 7-37 4l-2-2c-4 0-7-5-9-7-7-9-10-21-12-38 0-14 1-30 6-52 12-58 40-124 83-194 5-7 12-13 17-20 10-19 23-40 39-57 28-33 56-63 85-86" id="petal4"></path>
      <path d="M4400 4400c4-54-1-112-17-177-9-40-18-73-31-103 7-32 21-61 36-83 28-48 53-71 78-73 22 4 39 31 54 81 8 34 12 75 11 115-19 22-36 47-51 74-37 59-66 115-80 166" style="fill:#ed1c24" id="petal1"></path>
      <path d="M4650 4060c41-36 75-48 96-40 21 12 25 46 14 95-5 30-15 59-28 88-8 17-14 37-25 56-8 17-20 34-30 54-44 68-91 124-140 163-20 16-40 28-55 36-15 4-27 7-37 4l-2-2c-4 0-7-5-9-7-7-9-10-21-12-38 0-14 1-30 6-52 12-58 40-124 83-194 5-7 12-13 17-20 10-19 23-40 39-57 28-33 56-63 85-86" style="fill:#8c1b85" id="petal2"></path>
      <path d="M5960 3720c-33 9-76 20-127 33-94 28-150 35-166 24-17-11-28-65-33-159-4-59-9-109-11-148-33-11-72-26-122-46-92-33-142-61-150-81-7-17 17-68 68-148 33-50 59-92 78-124-20-28-44-65-72-111-55-81-78-131-72-150 4-20 50-46 140-78 55-22 100-41 138-57 2-26 4-59 7-96v-35c4-98 15-153 31-164 15-11 68-6 161 17 57 15 105 26 142 35 22-26 50-61 83-103 61-76 102-113 122-116 20 0 59 37 120 109 37 46 68 85 94 113 33-7 76-20 129-35 94-24 148-33 166-22 15 11 26 65 33 159 0 15 0 28 2 39 2 41 4.38 79 6 107 33 13 74 28 124 48 92 35 140 61 146 79 6 20-17 68-68 148-33 50-57 92-76 124 18 30 41 68 72 111 52.43 81 76 131 72 150-6 20-52 48-142 81-54 22-100 39-135 54-2 35-4 78-6 133-4 98-15 153-30 164-15 13-70 6-161-17-59-15-107-26-144-35-22 26-50 61-83 103-61 76-100 116-120 116s-61-37-120-111c-37-46-70-83-96-111" id="eye2"></path>
      <path d="M6500 4100c-25.24 8.39-53.28 5.59-78.5-2.83-30.84-8.4-53.28-28.04-61.68-53.26-11.22-25.23-8.42-53.26 5.58-78.51 11.23-22.43 30.84-39.26 56.1-53.26 11.21-5.6 25.22-11.22 39.26-16.84 86.89-30.83 182.24-89.7 288.77-176.63-53.27 213.09-120.55 336.46-204.67 367.3-14.02 5.61-30.84 11.2-44.86 14.03" id="tear"></path>
      <path d="M5769 4876c274 21 415 85 692-127-115 159-241 266-379 326-89 36-218 80-316 63-70-13-117-37-136-65-25-33-34-68-26-103s29-62 66-80c28-16 62-22 100-14" id="tear2"></path>
      <path d="M6740 4300c-16.81-22.42-25.23-47.67-28.03-78.51v-50.46c-2.81-98.13 33.64-229.92 109.33-400.94 61.68 168.21 92.52 302.81 92.52 400.94v50.46c-2.78 30.84-14 56.09-30.84 78.51-19.61 25.23-44.84 39.26-70.08 39.26-28.03 0-53.27-14.03-72.9-39.26" id="tear3"></path>
      <g id="half">
        <use xlink:href="#b" transform="rotate(130 6130 3100)" style="fill:#9addf0"></use>
        <circle cx="6665" cy="4440" r="80" style="fill:#0994d3"></circle>
        <circle cx="6370" cy="4510" r="80" style="fill:#0994d3"></circle>
        <circle cx="6480" cy="4360" r="60" style="fill:#0994d3"></circle>
        <use xlink:href="#tear3" style="fill:#0994d3"></use>
        <circle cx="7000" cy="3900" r="50" style="fill:#0994d3"></circle>
        <use xlink:href="#tear" x="110" y="50" transform="rotate(-20 6500 4100)" style="fill:#ed1c24"></use>
        <use xlink:href="#tear2" style="fill:#ed1c24"></use>
        <circle cx="5350" cy="2550" r="80" style="fill:#ed1c24"></circle>
        <circle cx="5420" cy="2280" r="130" style="fill:#ed1c24"></circle>
        <circle cx="5950" cy="4500" r="50" style="fill:#ed1c24"></circle>
        <path d="M5844 4593.31c36.44 36.45 81.31 53.27 134.57 56.08 53.3 2.81 89.73-16.82 109.36-53.28 19.63-36.44 14.02-72.9-16.83-103.74-30.83-30.84-39.23-61.68-25.22-89.71 11.21-25.24 42.05-33.65 92.52-19.63 50.46 14.02 78.51 53.28 81.32 117.76 2.78 67.29-19.64 117.76-72.9 151.41-53.27 33.64-109.36 50.46-173.83 50.46-64.51 0-120.58-22.43-168.24-70.09-47.67-47.68-70.1-103.74-70.1-168.24 0-64.48 22.43-120.56 70.1-168.21 47.66-47.67 140.18-89.73 280.38-131.78 126.17-42.06 252.34-114.95 378.51-221.5-126.17 207.47-235.52 322.44-325.24 347.67-92.52 25.23-171.03 47.66-241.12 67.29-70.09 19.62-106.55 56.09-106.55 106.54 0 50.48 16.81 92.54 53.27 128.97" style="fill:#0994d3"></path>
        <circle cx="6160" cy="3050" r="600" style="fill:#312b5d"></circle>
        <path d="M7145 1722c59 0 109 26 151 76 41 50 61 113 61 185s-19 135-61 185c-41 50-120 144-236 279-22 26-41 46-59 59-17-13-37-33-59-59-116-135-194-229-236-279-41-50-63-113-61-185-2-72 20-135 61-186 41-50 92-76 151-76 55 0 103 24 144 70" style="fill:#312b5d"></path>
        <use xlink:href="#teeth" style="fill:#fff"></use>
        <use xlink:href="#decorative2"></use>
        <use xlink:href="#decorative3"></use>
        <use xlink:href="#decorative5"></use>
        <use xlink:href="#decorative8"></use>
      </g>
    </defs>
    <g filter="hue-rotate(30deg)">
      <use xlink:href="#face"></use>
      <use xlink:href="#eye2" style="fill:#9addf0"></use>
      <use xlink:href="#half"></use>
      <g transform="matrix(-1 0 0 1 14000 0)">
        <use xlink:href="#eye2" style="fill:#ed1c24"></use>
        <use xlink:href="#half"></use>
      </g>
    </g>
  </g>
  <text x="30" y="55" class="heavy">Week: 48</text>
  <text x="670" y="55" class="heavy" text-anchor="end">8798 Cultists Remaining</text>
  <text x="350" y="730" class="superheavy" text-anchor="middle">Obliterated By</text>
  <text x="350" y="780" class="superheavy" text-anchor="middle">Politically Indiscreet Heavy Metal</text>
</svg>
